<svg aria-hidden="true" xmlns="http://www.w3.org/2000/svg" xmlns:xlink="http://www.w3.org/1999/xlink"><symbol viewBox="0 0 10 6" id="collections-icon-arrow" xmlns="http://www.w3.org/2000/svg">
<path d="M0 0.5L5 5.5L10 0.5"/>
</symbol><symbol viewBox="0 0 48 35" id="hero-icon-arrow" xmlns="http://www.w3.org/2000/svg">
<g clip-path="url(#bclip0_1_66)">
<path d="M0.350342 17.2154C0.350342 16.7505 0.726763 16.3733 1.19245 16.3733H44.928L32.6148 1.52272C32.3183 1.16567 32.3663 0.633464 32.7259 0.337043C33.0838 0.0406217 33.6152 0.0903042 33.9116 0.448199C33.9116 0.448199 47.4897 16.6891 47.5697 16.86C47.6303 16.9897 47.6564 17.1303 47.6472 17.2676C47.664 17.4815 47.5941 17.692 47.4501 17.8629L33.9764 33.8267C33.6767 34.1821 33.1461 34.2276 32.7908 33.9286C32.4346 33.6297 32.3882 33.1 32.6872 32.7429L45.0013 18.0575H1.19245C0.727605 18.0575 0.350342 17.6811 0.350342 17.2154Z"/>
</g>
<defs>
<clipPath id="bclip0_1_66">
<rect width="48" height="35"/>
</clipPath>
</defs>
</symbol><symbol viewBox="0 0 32 32" id="hero-play-icon" xmlns="http://www.w3.org/2000/svg">
<circle cx="16" cy="16" r="16"/>
<path d="M22.5 15.134C23.1667 15.5189 23.1667 16.4811 22.5 16.866L13.5 22.0622C12.8333 22.4471 12 21.966 12 21.1962V10.8038C12 10.034 12.8333 9.55292 13.5 9.93782L22.5 15.134Z"/>
</symbol><symbol viewBox="0 96 960 960" id="icon-search" xmlns="http://www.w3.org/2000/svg"><path d="M782 892 528 638q-29.605 27.077-69.051 41.038Q419.503 693 381 693q-91.812 0-155.406-63.337Q162 566.325 162 474.663 162 383 225.337 319.5 288.675 256 380.11 256t155.662 63.385Q600 382.769 600 474.288 600 515 585 554.5T544 622l254 253-16 17ZM381 671q83.083 0 140.042-56.5Q578 558 578 474.5t-56.958-140Q464.083 278 381 278t-140.042 56.5Q184 391 184 474.5t56.958 140Q297.917 671 381 671Z"/></symbol><symbol viewBox="0 0 14 14" id="selected-heart" xmlns="http://www.w3.org/2000/svg">
<g clip-path="url(#eclip0_1_123)">
<path d="M12.8753 2.31563C11.3527 0.793433 8.87573 0.793433 7.35353 2.31563L6.99997 2.66899L6.64662 2.31563C5.12442 0.793226 2.64723 0.793226 1.12503 2.31563C-0.366261 3.80693 -0.375945 6.17079 1.10258 7.81435C2.45109 9.31285 6.42822 12.5503 6.59696 12.6873C6.71152 12.7805 6.84936 12.8258 6.98637 12.8258C6.99091 12.8258 6.99544 12.8258 6.99976 12.8256C7.14152 12.8322 7.2843 12.7835 7.40257 12.6873C7.57131 12.5503 11.5489 9.31285 12.8978 7.81414C14.3761 6.17079 14.3664 3.80693 12.8753 2.31563ZM11.9789 6.98731C10.9274 8.15534 8.03737 10.5643 6.99976 11.4192C5.96216 10.5645 3.0727 8.15575 2.0215 6.98752C0.99008 5.84113 0.980396 4.20849 1.99904 3.18985C2.51929 2.66981 3.2025 2.40959 3.88572 2.40959C4.56894 2.40959 5.25216 2.6696 5.7724 3.18985L6.54957 3.96702C6.64208 4.05953 6.7587 4.11475 6.88109 4.13411C7.07971 4.17676 7.29522 4.12134 7.44975 3.96722L8.22733 3.18985C9.26803 2.14957 10.9608 2.14977 12.0009 3.18985C13.0195 4.20849 13.0099 5.84113 11.9789 6.98731Z"/>
</g>
<defs>
<clipPath id="eclip0_1_123">
<rect width="14" height="14"/>
</clipPath>
</defs>
</symbol><symbol viewBox="0 0 12 12" id="selected-icon" xmlns="http://www.w3.org/2000/svg">
<path fill-rule="evenodd" clip-rule="evenodd" d="M8.65065 2.66665C8.16063 2.66665 7.76342 3.0646 7.76342 3.55552V4.26673H10.6469V6.9778H7.71903V8.13336C7.71903 10.2689 5.9911 12 3.85951 12C1.72798 12 0 10.2689 0 8.13336C0 5.9979 1.72798 4.26673 3.85951 4.26673H5.10167V3.55552C5.10167 1.59189 6.69059 0 8.65065 0H12V2.66665H8.65065ZM5.10156 4.28893V6.97787H7.71893V4.28893H5.10156ZM2.66162 8.13348C2.66162 7.47073 3.19791 6.93351 3.85939 6.93351H5.05721V8.13348C5.05721 8.79624 4.52093 9.33346 3.85939 9.33346C3.19791 9.33346 2.66162 8.79624 2.66162 8.13348Z"/>
</symbol></svg>