<svg aria-hidden="true" xmlns="http://www.w3.org/2000/svg" xmlns:xlink="http://www.w3.org/1999/xlink"><symbol viewBox="0 0 10 6" id="collections-icon-arrow" xmlns="http://www.w3.org/2000/svg">
<path d="M0 0.5L5 5.5L10 0.5"/>
</symbol><symbol viewBox="0 0 48 35" id="hero-icon-arrow" xmlns="http://www.w3.org/2000/svg">
<g clip-path="url(#bclip0_1_66)">
<path d="M0.350342 17.2154C0.350342 16.7505 0.726763 16.3733 1.19245 16.3733H44.928L32.6148 1.52272C32.3183 1.16567 32.3663 0.633464 32.7259 0.337043C33.0838 0.0406217 33.6152 0.0903042 33.9116 0.448199C33.9116 0.448199 47.4897 16.6891 47.5697 16.86C47.6303 16.9897 47.6564 17.1303 47.6472 17.2676C47.664 17.4815 47.5941 17.692 47.4501 17.8629L33.9764 33.8267C33.6767 34.1821 33.1461 34.2276 32.7908 33.9286C32.4346 33.6297 32.3882 33.1 32.6872 32.7429L45.0013 18.0575H1.19245C0.727605 18.0575 0.350342 17.6811 0.350342 17.2154Z"/>
</g>
<defs>
<clipPath id="bclip0_1_66">
<rect width="48" height="35"/>
</clipPath>
</defs>
</symbol><symbol viewBox="0 0 32 32" id="hero-play-icon" xmlns="http://www.w3.org/2000/svg">
<circle cx="16" cy="16" r="16"/>
<path d="M22.5 15.134C23.1667 15.5189 23.1667 16.4811 22.5 16.866L13.5 22.0622C12.8333 22.4471 12 21.966 12 21.1962V10.8038C12 10.034 12.8333 9.55292 13.5 9.93782L22.5 15.134Z"/>
</symbol><symbol viewBox="0 96 960 960" id="icon-search" xmlns="http://www.w3.org/2000/svg"><path d="M782 892 528 638q-29.605 27.077-69.051 41.038Q419.503 693 381 693q-91.812 0-155.406-63.337Q162 566.325 162 474.663 162 383 225.337 319.5 288.675 256 380.11 256t155.662 63.385Q600 382.769 600 474.288 600 515 585 554.5T544 622l254 253-16 17ZM381 671q83.083 0 140.042-56.5Q578 558 578 474.5t-56.958-140Q464.083 278 381 278t-140.042 56.5Q184 391 184 474.5t56.958 140Q297.917 671 381 671Z"/></symbol><symbol viewBox="0 0 16 16" id="resources-icon-comment" xmlns="http://www.w3.org/2000/svg">
<path d="M8.95312 6.57812C8.59219 6.57812 8.3125 6.85781 8.3125 7.20312C8.3125 7.54844 8.59219 7.82812 8.95312 7.82812C9.28281 7.82812 9.5625 7.54844 9.5625 7.20312C9.5625 6.85781 9.28281 6.57812 8.95312 6.57812ZM4.57812 6.57812C4.21719 6.57812 3.9375 6.85781 3.9375 7.20312C3.9375 7.54844 4.21719 7.82812 4.57812 7.82812C4.90781 7.82812 5.1875 7.54844 5.1875 7.20312C5.1875 6.85781 4.90781 6.57812 4.57812 6.57812Z"/>
<path d="M13.9688 5.39065C13.2172 4.3594 12.1672 3.67034 11.0156 3.3594V3.36097C10.7484 3.06409 10.4469 2.79065 10.1094 2.5469C7.55157 0.687528 3.96094 1.25472 2.09376 3.81253C0.589068 5.89065 0.65313 8.68597 2.18751 10.6719L2.20001 12.7438C2.20001 12.7938 2.20782 12.8438 2.22344 12.8907C2.30626 13.1547 2.58751 13.3 2.85001 13.2172L4.82813 12.5938C5.35157 12.7797 5.89219 12.886 6.42969 12.9157L6.42188 12.9219C7.81407 13.936 9.63907 14.2407 11.3125 13.6875L13.2984 14.3344C13.3484 14.35 13.4 14.3594 13.4531 14.3594C13.7297 14.3594 13.9531 14.136 13.9531 13.8594V11.7657C15.3297 9.8969 15.3656 7.31409 13.9688 5.39065ZM5.04688 11.4844L4.85938 11.4063L3.31251 11.8907L3.29688 10.2657L3.17188 10.125C1.85001 8.51253 1.76251 6.18909 3.00001 4.4844C4.50626 2.41878 7.39375 1.96253 9.45313 3.45315C11.5188 4.95472 11.9766 7.83753 10.4844 9.89065C9.23282 11.6078 6.99219 12.2422 5.04688 11.4844ZM12.9375 11.2188L12.8125 11.375L12.8281 13L11.2969 12.4844L11.1094 12.5625C10.2344 12.8875 9.30157 12.9141 8.43751 12.6719L8.43438 12.6703C9.58907 12.3157 10.6359 11.5969 11.3906 10.5625C12.5844 8.91722 12.7781 6.85003 12.0844 5.08753L12.0938 5.09378C12.4531 5.35159 12.7828 5.67347 13.0625 6.06253C14.1969 7.61878 14.1328 9.73753 12.9375 11.2188Z"/>
<path d="M6.76562 6.57812C6.40469 6.57812 6.125 6.85781 6.125 7.20312C6.125 7.54844 6.40469 7.82812 6.76562 7.82812C7.09531 7.82812 7.375 7.54844 7.375 7.20312C7.375 6.85781 7.09531 6.57812 6.76562 6.57812Z"/>
</symbol><symbol viewBox="0 0 14 14" id="selected-heart" xmlns="http://www.w3.org/2000/svg">
<g clip-path="url(#fclip0_1_123)">
<path d="M12.8753 2.31563C11.3527 0.793433 8.87573 0.793433 7.35353 2.31563L6.99997 2.66899L6.64662 2.31563C5.12442 0.793226 2.64723 0.793226 1.12503 2.31563C-0.366261 3.80693 -0.375945 6.17079 1.10258 7.81435C2.45109 9.31285 6.42822 12.5503 6.59696 12.6873C6.71152 12.7805 6.84936 12.8258 6.98637 12.8258C6.99091 12.8258 6.99544 12.8258 6.99976 12.8256C7.14152 12.8322 7.2843 12.7835 7.40257 12.6873C7.57131 12.5503 11.5489 9.31285 12.8978 7.81414C14.3761 6.17079 14.3664 3.80693 12.8753 2.31563ZM11.9789 6.98731C10.9274 8.15534 8.03737 10.5643 6.99976 11.4192C5.96216 10.5645 3.0727 8.15575 2.0215 6.98752C0.99008 5.84113 0.980396 4.20849 1.99904 3.18985C2.51929 2.66981 3.2025 2.40959 3.88572 2.40959C4.56894 2.40959 5.25216 2.6696 5.7724 3.18985L6.54957 3.96702C6.64208 4.05953 6.7587 4.11475 6.88109 4.13411C7.07971 4.17676 7.29522 4.12134 7.44975 3.96722L8.22733 3.18985C9.26803 2.14957 10.9608 2.14977 12.0009 3.18985C13.0195 4.20849 13.0099 5.84113 11.9789 6.98731Z"/>
</g>
<defs>
<clipPath id="fclip0_1_123">
<rect width="14" height="14"/>
</clipPath>
</defs>
</symbol><symbol viewBox="0 0 12 12" id="selected-icon" xmlns="http://www.w3.org/2000/svg">
<path fill-rule="evenodd" clip-rule="evenodd" d="M8.65065 2.66665C8.16063 2.66665 7.76342 3.0646 7.76342 3.55552V4.26673H10.6469V6.9778H7.71903V8.13336C7.71903 10.2689 5.9911 12 3.85951 12C1.72798 12 0 10.2689 0 8.13336C0 5.9979 1.72798 4.26673 3.85951 4.26673H5.10167V3.55552C5.10167 1.59189 6.69059 0 8.65065 0H12V2.66665H8.65065ZM5.10156 4.28893V6.97787H7.71893V4.28893H5.10156ZM2.66162 8.13348C2.66162 7.47073 3.19791 6.93351 3.85939 6.93351H5.05721V8.13348C5.05721 8.79624 4.52093 9.33346 3.85939 9.33346C3.19791 9.33346 2.66162 8.79624 2.66162 8.13348Z"/>
</symbol><symbol viewBox="0 0 12 12" id="trending-icon-check" xmlns="http://www.w3.org/2000/svg">
<circle cx="6" cy="6" r="6"/>
<path d="M8.2275 3.7275C8.33315 3.62691 8.47374 3.57131 8.61961 3.57241C8.76548 3.57352 8.90521 3.63124 9.00933 3.73341C9.11345 3.83558 9.1738 3.97421 9.17766 4.12003C9.18151 4.26585 9.12857 4.40747 9.03 4.515L6.0375 8.2575C5.98604 8.31292 5.92393 8.3574 5.8549 8.38827C5.78586 8.41915 5.7113 8.43578 5.63568 8.43718C5.56007 8.43858 5.48495 8.42472 5.41481 8.39642C5.34468 8.36813 5.28097 8.32598 5.2275 8.2725L3.243 6.288C3.18773 6.2365 3.1434 6.1744 3.11266 6.1054C3.08192 6.0364 3.06538 5.96192 3.06405 5.88639C3.06272 5.81086 3.07661 5.73584 3.1049 5.6658C3.13319 5.59576 3.1753 5.53213 3.22872 5.47872C3.28213 5.42531 3.34576 5.3832 3.4158 5.35491C3.48584 5.32661 3.56086 5.31272 3.63639 5.31405C3.71192 5.31539 3.7864 5.33192 3.8554 5.36266C3.9244 5.39341 3.9865 5.43773 4.038 5.493L5.6085 7.06275L8.21325 3.744C8.21794 3.73822 8.22294 3.73271 8.22825 3.7275H8.2275Z"/>
</symbol><symbol viewBox="0 0 12 12" id="trending-icon-circle-arrow" xmlns="http://www.w3.org/2000/svg">
<path d="M9.955 2.045C9.10516 1.19256 8.00327 0.636638 6.81267 0.45963C5.62206 0.282622 4.40611 0.493951 3.34504 1.06229C2.28397 1.63063 1.43427 2.52574 0.92188 3.61492C0.409489 4.70411 0.261682 5.92941 0.500367 7.1092C0.739053 8.28899 1.35153 9.36047 2.24701 10.1648C3.14248 10.9692 4.2733 11.4636 5.47185 11.5748C6.67039 11.686 7.87287 11.408 8.90104 10.7822C9.92921 10.1563 10.7283 9.21574 11.18 8.1H9.626C9.19334 8.86419 8.53203 9.47355 7.73506 9.84237C6.93809 10.2112 6.04556 10.3209 5.18298 10.1561C4.32041 9.99134 3.53119 9.56032 2.92631 8.92368C2.32142 8.28705 1.93131 7.47682 1.81083 6.60695C1.69035 5.73708 1.84556 4.85133 2.25464 4.07426C2.66372 3.29718 3.30608 2.66788 4.0914 2.27486C4.87671 1.88183 5.76546 1.74484 6.63267 1.88317C7.49988 2.02149 8.30192 2.42816 8.926 3.046L6.7 5.3H11.6V0.399997L9.955 2.045Z"/>
</symbol></svg>